<svg xmlns="http://www.w3.org/2000/svg" viewBox="0 0 385.2 39.4"><title>scmatrix</title><g id="Layer_2" data-name="Layer 2"><g id="Layer_1-2" data-name="Layer 1"><path d="M32.4,6.66v3H25.33V7H7v5.67H25.74a6.69,6.69,0,0,1,6.66,6.66v6.39a6.69,6.69,0,0,1-6.66,6.66H6.66A6.4,6.4,0,0,1,2,30.46a6.35,6.35,0,0,1-2-4.72v-3H7v2.65H25.33V19.71H6.66A6.43,6.43,0,0,1,2,17.78a6.39,6.39,0,0,1-2-4.73V6.66A6.36,6.36,0,0,1,2,1.94,6.44,6.44,0,0,1,6.66,0H25.74a6.38,6.38,0,0,1,4.7,2A6.38,6.38,0,0,1,32.4,6.66Z"/><path d="M83,7H57.69V25.38H83v7H57.38a6.62,6.62,0,0,1-6.67-6.66V6.66a6.42,6.42,0,0,1,1.94-4.72A6.43,6.43,0,0,1,57.38,0H83Z"/><path d="M108,25.52V32.4h-6.89V25.52Z"/><path d="M143.37,13.09,154.3,0h7.25V32.4h-7V10.67L143.37,24,132.16,10.71V32.4h-7V0h7.2Z"/><path d="M187.2,0h19A6.45,6.45,0,0,1,211,2a6.38,6.38,0,0,1,2,4.7V32.4h-7.07V22H187.51V32.4h-7V6.66a6.41,6.41,0,0,1,1.93-4.72A6.44,6.44,0,0,1,187.2,0Zm.31,14.94h18.36V7H187.51Z"/><path d="M230,0h32.4V7H249.66V32.4h-7V7H230Z"/><path d="M311.58,6.71v8.37a6.38,6.38,0,0,1-2,4.7,6.52,6.52,0,0,1-4.73,2h-.31l7,8.28V32.4h-7.2l-9-10.66-9.27,0c.09,0,.14.09.14.27a.16.16,0,0,1-.14-.05V32.4h-7V0h25.69a6.52,6.52,0,0,1,4.73,2A6.4,6.4,0,0,1,311.58,6.71ZM286.15,7v7.69h18.36V7Z"/><path d="M329.89,32.4V0h7V32.4Z"/><path d="M378,0h7.25V2.38L373.59,16.2,385.2,30V32.4H378l-9-10.62L354,39.4H346.8V37L364.36,16.2,352.8,2.38V0H360l9,10.67q1.31-1.66,4.5-5.43T378,0Z"/></g></g></svg>