<svg xmlns="http://www.w3.org/2000/svg" viewBox="0 0 257.35 52"><title>scmatrix-logo</title><g id="Layer_2" data-name="Layer 2"><g id="Layer_1-2" data-name="Layer 1"><path d="M0,35H10v7h8V33.84L2.35,25.6c-1.8-1.12-2.35-3-2.35-5V6.4A6.36,6.36,0,0,1,6.23,0H21.6A6.42,6.42,0,0,1,28,6.4V17H18V10H10v8.24L25.58,26.4c1.87,1.12,2.42,3,2.42,5V45.57A6.41,6.41,0,0,1,21.69,52H6.32A6.33,6.33,0,0,1,0,45.68Z"/><path d="M32,6.45A6.38,6.38,0,0,1,38.23,0H53.6A6.42,6.42,0,0,1,60,6.4V17H50V10H42V42h8V35H60V45.63A6.38,6.38,0,0,1,53.69,52H38.23A6.37,6.37,0,0,1,32,45.63Z"/><path d="M74,42V52H64V42Z"/><path d="M78,0H92.68l4.59,24.12L97.84,33h.32l.57-8.88L103.32,0H118V52H108V24.52l.4-7.52h-.24l-6,35H93.89l-6-35H87.6l.4,7.52V52H78Z"/><path d="M122,6.45A6.38,6.38,0,0,1,128.23,0H143.6A6.42,6.42,0,0,1,150,6.4V52H140V38h-8V52H122ZM140,28V10h-8V28Z"/><path d="M153,0h28V10h-9V52H162V10h-9Z"/><path d="M212.47,52h-10l-5.65-14H194V52H184V0h20.32A7.68,7.68,0,0,1,212,7.68V30.56a7.67,7.67,0,0,1-5.13,7.25ZM202,10h-8V28h8Z"/><path d="M217,0h10V52H217Z"/><path d="M246.9,52l-2-8c-.79-3.58-1.59-8-1.59-8h-.16s-.71,4.46-1.51,8l-1.91,8H229.22l6.61-26L229.46,0h10.3l1.9,8c.79,3,1.5,8.08,1.5,8h.16c0,.08.79-5,1.59-8l2-8h10.38l-6.53,26.12L257.35,52Z"/></g></g></svg>